<svg width="22" height="23" viewBox="0 0 22 23" fill="none" xmlns="http://www.w3.org/2000/svg">
<path d="M9.23176 3.42014L9.23215 3.41983C10.2106 2.63401 11.7841 2.63828 12.7779 3.42991C12.778 3.43 12.7782 3.4301 12.7783 3.43019L18.7781 8.23004C18.7787 8.23051 18.7793 8.23097 18.7798 8.23144C19.1187 8.50836 19.4144 8.94379 19.6055 9.44409C19.7966 9.94403 19.867 10.4661 19.8012 10.8985L18.6473 17.8036C18.6472 17.8041 18.6471 17.8046 18.647 17.8051C18.4215 19.0988 17.1606 20.1667 15.8582 20.1667H6.14155C4.81958 20.1667 3.58742 19.1251 3.36202 17.8148C3.36196 17.8144 3.36191 17.8141 3.36185 17.8138L2.20721 10.9043L2.20702 10.9031C2.13321 10.4676 2.19923 9.9446 2.38978 9.44492C2.5803 8.94529 2.87957 8.51032 3.22673 8.23334L3.2276 8.23264L9.23176 3.42014ZM10.9999 18.1875C11.6519 18.1875 12.1874 17.652 12.1874 17V14.25C12.1874 13.598 11.6519 13.0625 10.9999 13.0625C10.3479 13.0625 9.81238 13.598 9.81238 14.25V17C9.81238 17.652 10.3479 18.1875 10.9999 18.1875Z" fill="#596780" stroke="#596780"/>
</svg>
