<svg width="22" height="22" viewBox="0 0 22 22" fill="none" xmlns="http://www.w3.org/2000/svg">
<path fill-rule="evenodd" clip-rule="evenodd" d="M5.15625 1.375C4.20658 1.375 3.4375 2.145 3.4375 3.09375V18.9063C3.4375 19.855 4.2075 20.625 5.15625 20.625H16.8438C17.7925 20.625 18.5625 19.855 18.5625 18.9063V11.6875C18.5625 10.7758 18.2003 9.90148 17.5557 9.25682C16.911 8.61216 16.0367 8.25 15.125 8.25H13.4063C12.9504 8.25 12.5132 8.06892 12.1909 7.74659C11.8686 7.42426 11.6875 6.98709 11.6875 6.53125V4.8125C11.6875 3.90082 11.3253 3.02648 10.6807 2.38182C10.036 1.73716 9.16168 1.375 8.25 1.375H5.15625ZM6.875 13.75C6.875 13.5677 6.94743 13.3928 7.07636 13.2639C7.2053 13.1349 7.38016 13.0625 7.5625 13.0625H14.4375C14.6198 13.0625 14.7947 13.1349 14.9236 13.2639C15.0526 13.3928 15.125 13.5677 15.125 13.75C15.125 13.9323 15.0526 14.1072 14.9236 14.2361C14.7947 14.3651 14.6198 14.4375 14.4375 14.4375H7.5625C7.38016 14.4375 7.2053 14.3651 7.07636 14.2361C6.94743 14.1072 6.875 13.9323 6.875 13.75ZM7.5625 15.8125C7.38016 15.8125 7.2053 15.8849 7.07636 16.0139C6.94743 16.1428 6.875 16.3177 6.875 16.5C6.875 16.6823 6.94743 16.8572 7.07636 16.9861C7.2053 17.1151 7.38016 17.1875 7.5625 17.1875H11C11.1823 17.1875 11.3572 17.1151 11.4861 16.9861C11.6151 16.8572 11.6875 16.6823 11.6875 16.5C11.6875 16.3177 11.6151 16.1428 11.4861 16.0139C11.3572 15.8849 11.1823 15.8125 11 15.8125H7.5625Z" fill="#596780"/>
<path d="M11.8901 1.66467C12.6478 2.53822 13.0642 3.65617 13.0626 4.81251V6.53126C13.0626 6.72101 13.2166 6.87501 13.4063 6.87501H15.1251C16.2814 6.8734 17.3993 7.28978 18.2729 8.04742C17.8696 6.51357 17.0661 5.11436 15.9447 3.9929C14.8232 2.87144 13.424 2.06797 11.8901 1.66467Z" fill="#596780"/>
</svg>
