<svg width="24" height="24" viewBox="0 0 24 24" fill="none" xmlns="http://www.w3.org/2000/svg">
<path fill-rule="evenodd" clip-rule="evenodd" d="M5.625 1.5H9C9.99456 1.5 10.9484 1.89509 11.6517 2.59835C12.3549 3.30161 12.75 4.25544 12.75 5.25V7.125C12.75 8.161 13.59 9 14.625 9H16.5C17.4946 9 18.4484 9.39509 19.1517 10.0983C19.8549 10.8016 20.25 11.7554 20.25 12.75V20.625C20.25 21.66 19.41 22.5 18.375 22.5H5.625C5.12772 22.5 4.65081 22.3025 4.29917 21.9508C3.94754 21.5992 3.75 21.1223 3.75 20.625V3.375C3.75 2.339 4.59 1.5 5.625 1.5ZM9.75 17.25C9.75 17.0511 9.67098 16.8603 9.53033 16.7197C9.38968 16.579 9.19891 16.5 9 16.5C8.80109 16.5 8.61032 16.579 8.46967 16.7197C8.32902 16.8603 8.25 17.0511 8.25 17.25V18C8.25 18.1989 8.32902 18.3897 8.46967 18.5303C8.61032 18.671 8.80109 18.75 9 18.75C9.19891 18.75 9.38968 18.671 9.53033 18.5303C9.67098 18.3897 9.75 18.1989 9.75 18V17.25ZM12 14.25C12.1989 14.25 12.3897 14.329 12.5303 14.4697C12.671 14.6103 12.75 14.8011 12.75 15V18C12.75 18.1989 12.671 18.3897 12.5303 18.5303C12.3897 18.671 12.1989 18.75 12 18.75C11.8011 18.75 11.6103 18.671 11.4697 18.5303C11.329 18.3897 11.25 18.1989 11.25 18V15C11.25 14.8011 11.329 14.6103 11.4697 14.4697C11.6103 14.329 11.8011 14.25 12 14.25ZM15.75 12.75C15.75 12.5511 15.671 12.3603 15.5303 12.2197C15.3897 12.079 15.1989 12 15 12C14.8011 12 14.6103 12.079 14.4697 12.2197C14.329 12.3603 14.25 12.5511 14.25 12.75V18C14.25 18.1989 14.329 18.3897 14.4697 18.5303C14.6103 18.671 14.8011 18.75 15 18.75C15.1989 18.75 15.3897 18.671 15.5303 18.5303C15.671 18.3897 15.75 18.1989 15.75 18V12.75Z" fill="white"/>
<path d="M14.2499 5.24998C14.2517 3.98853 13.7975 2.76894 12.9709 1.81598C14.6442 2.25594 16.1706 3.13245 17.3941 4.35587C18.6175 5.57928 19.494 7.10569 19.9339 8.77898C18.981 7.95246 17.7614 7.49823 16.4999 7.49998H14.6249C14.5255 7.49998 14.4301 7.46047 14.3598 7.39014C14.2895 7.31982 14.2499 7.22444 14.2499 7.12498V5.24998Z" fill="white"/>
</svg>
