<svg width="20" height="28" viewBox="0 0 20 28" fill="none" xmlns="http://www.w3.org/2000/svg">
<mask id="mask0_121_32" style="mask-type:luminance" maskUnits="userSpaceOnUse" x="0" y="0" width="20" height="28">
<path d="M19.4724 0H0V27.125H19.4724V0Z" fill="white"/>
</mask>
<g mask="url(#mask0_121_32)">
<path d="M13.1156 20.7668C12.972 20.9104 12.8015 21.0244 12.6139 21.1021C12.4263 21.1798 12.2252 21.2199 12.0221 21.2199C11.8191 21.2199 11.618 21.1798 11.4303 21.1021C11.2427 21.0244 11.0723 20.9104 10.9287 20.7668L2.03367 11.8732C0.75076 10.5641 0.0363001 8.8016 0.0455601 6.96867C0.0548201 5.13577 0.78704 3.38058 2.08311 2.08451C3.37918 0.788444 5.1344 0.0562237 6.9673 0.0469637C8.8002 0.0377137 10.5627 0.752164 11.8718 2.03507L17.4935 7.65684C17.7828 7.94758 17.9447 8.3413 17.9436 8.7514C17.9426 9.1616 17.7786 9.5545 17.4879 9.8437C17.1972 10.133 16.8034 10.2949 16.3933 10.2938C15.9832 10.2928 15.5903 10.1288 15.301 9.8381L9.6863 4.21632C8.9609 3.49095 7.9771 3.08345 6.9513 3.08345C5.9255 3.08345 4.9417 3.49095 4.2163 4.21632C3.49096 4.94168 3.08345 5.92549 3.08345 6.9513C3.08345 7.97712 3.49096 8.9609 4.2163 9.6863L13.1114 18.5813C13.4016 18.8707 13.565 19.2634 13.5658 19.6732C13.5666 20.083 13.4047 20.4763 13.1156 20.7668Z" fill="#596780"/>
<path d="M17.4387 25.0899C16.133 26.3924 14.364 27.1238 12.5197 27.1238C10.6754 27.1238 8.9064 26.3924 7.6006 25.0899L1.98591 19.4681C1.8301 19.3276 1.70453 19.1568 1.61686 18.9661C1.52919 18.7755 1.48125 18.569 1.47596 18.3592C1.47066 18.1494 1.50813 17.9408 1.58607 17.746C1.66402 17.5511 1.78081 17.3742 1.92933 17.226C2.07785 17.0778 2.25499 16.9613 2.44997 16.8837C2.64494 16.8062 2.85367 16.7691 3.06343 16.7748C3.27319 16.7805 3.4796 16.8288 3.67007 16.9169C3.86055 17.0049 4.03111 17.1308 4.17137 17.2869L9.7861 22.9087C10.5126 23.6255 11.4931 24.0258 12.5136 24.0224C13.5342 24.019 14.512 23.6121 15.2336 22.8904C15.9553 22.1688 16.3622 21.191 16.3656 20.1704C16.369 19.1499 15.9687 18.1694 15.2519 17.4429L6.3568 8.5436C6.0668 8.2537 5.9039 7.86033 5.9039 7.45022C5.9039 7.0401 6.0668 6.64678 6.3568 6.35678C6.6468 6.06679 7.0401 5.90387 7.4503 5.90387C7.8604 5.90387 8.2537 6.06679 8.5437 6.35678L17.4387 15.2518C18.7415 16.5574 19.4732 18.3265 19.4732 20.1709C19.4732 22.0153 18.7415 23.7843 17.4387 25.0899Z" fill="#596780"/>
</g>
</svg>
