<svg width="135" height="31" viewBox="0 0 135 31" fill="none" xmlns="http://www.w3.org/2000/svg">
<mask id="mask0_111_79" style="mask-type:luminance" maskUnits="userSpaceOnUse" x="5" y="1" width="21" height="29">
<path d="M25.2849 1.9375H5.8125V29.0625H25.2849V1.9375Z" fill="white"/>
</mask>
<g mask="url(#mask0_111_79)">
<path d="M18.9281 22.7043C18.7845 22.8479 18.614 22.9619 18.4264 23.0396C18.2388 23.1173 18.0377 23.1574 17.8346 23.1574C17.6316 23.1574 17.4305 23.1173 17.2428 23.0396C17.0552 22.9619 16.8848 22.8479 16.7412 22.7043L7.84617 13.8107C6.56326 12.5016 5.8488 10.7391 5.85806 8.90617C5.86732 7.07327 6.59954 5.31808 7.89561 4.02201C9.19168 2.72594 10.9469 1.99372 12.7798 1.98446C14.6127 1.97521 16.3752 2.68966 17.6843 3.97257L23.306 9.59434C23.5953 9.88508 23.7572 10.2788 23.7561 10.6889C23.7551 11.0991 23.5911 11.492 23.3004 11.7812C23.0097 12.0705 22.6159 12.2324 22.2058 12.2313C21.7957 12.2303 21.4028 12.0663 21.1135 11.7756L15.4988 6.15382C14.7734 5.42845 13.7896 5.02095 12.7638 5.02095C11.738 5.02095 10.7542 5.42845 10.0288 6.15382C9.30346 6.87918 8.89595 7.86299 8.89595 8.8888C8.89595 9.91462 9.30346 10.8984 10.0288 11.6238L18.9239 20.5188C19.2141 20.8082 19.3775 21.2009 19.3783 21.6107C19.3791 22.0205 19.2172 22.4138 18.9281 22.7043Z" fill="#FFD600"/>
<path d="M23.2512 27.0274C21.9455 28.3299 20.1765 29.0613 18.3322 29.0613C16.4879 29.0613 14.7189 28.3299 13.4131 27.0274L7.79841 21.4056C7.6426 21.2651 7.51703 21.0943 7.42936 20.9036C7.34169 20.713 7.29375 20.5065 7.28846 20.2967C7.28316 20.0869 7.32063 19.8783 7.39857 19.6835C7.47652 19.4886 7.59331 19.3117 7.74183 19.1635C7.89035 19.0153 8.06749 18.8988 8.26247 18.8212C8.45744 18.7437 8.66617 18.7066 8.87593 18.7123C9.08569 18.718 9.2921 18.7663 9.48257 18.8544C9.67305 18.9424 9.84361 19.0683 9.98387 19.2244L15.5986 24.8462C16.3251 25.563 17.3056 25.9633 18.3261 25.9599C19.3467 25.9565 20.3245 25.5496 21.0461 24.8279C21.7678 24.1063 22.1747 23.1285 22.1781 22.1079C22.1815 21.0874 21.7812 20.1069 21.0644 19.3804L12.1693 10.4811C11.8793 10.1912 11.7164 9.79783 11.7164 9.38772C11.7164 8.9776 11.8793 8.58428 12.1693 8.29428C12.4593 8.00429 12.8526 7.84137 13.2628 7.84137C13.6729 7.84137 14.0662 8.00429 14.3562 8.29428L23.2512 17.1893C24.554 18.4949 25.2857 20.264 25.2857 22.1084C25.2857 23.9528 24.554 25.7218 23.2512 27.0274Z" fill="#FFD600"/>
</g>
<path d="M49.272 21.224C48.12 21.224 47.2027 20.9093 46.52 20.28C45.848 19.6507 45.512 18.7707 45.512 17.64V16.584H47.624V17.64C47.624 18.1413 47.7627 18.536 48.04 18.824C48.3173 19.1013 48.7067 19.24 49.208 19.24C49.6773 19.24 50.04 19.1013 50.296 18.824C50.5627 18.5467 50.696 18.152 50.696 17.64V11.72H48.776V9.8H54.088V11.72H52.808V17.64C52.808 18.8027 52.4933 19.6933 51.864 20.312C51.2347 20.92 50.3707 21.224 49.272 21.224ZM57.3228 21.224C56.7574 21.224 56.2508 21.128 55.8028 20.936C55.3548 20.7333 54.9974 20.4453 54.7308 20.072C54.4748 19.688 54.3468 19.224 54.3468 18.68C54.3468 18.136 54.4748 17.6827 54.7308 17.32C54.9974 16.9467 55.3601 16.6693 55.8188 16.488C56.2881 16.296 56.8214 16.2 57.4188 16.2H59.5948V15.752C59.5948 15.3787 59.4774 15.0747 59.2428 14.84C59.0081 14.5947 58.6348 14.472 58.1228 14.472C57.6214 14.472 57.2481 14.5893 57.0028 14.824C56.7574 15.048 56.5974 15.3413 56.5228 15.704L54.6668 15.08C54.7948 14.6747 54.9974 14.3067 55.2748 13.976C55.5628 13.6347 55.9414 13.3627 56.4108 13.16C56.8908 12.9467 57.4721 12.84 58.1548 12.84C59.2001 12.84 60.0268 13.1013 60.6348 13.624C61.2428 14.1467 61.5468 14.904 61.5468 15.896V18.856C61.5468 19.176 61.6961 19.336 61.9948 19.336H62.6348V21H61.2908C60.8961 21 60.5708 20.904 60.3148 20.712C60.0588 20.52 59.9308 20.264 59.9308 19.944V19.928H59.6268C59.5841 20.056 59.4881 20.2267 59.3388 20.44C59.1894 20.6427 58.9548 20.824 58.6348 20.984C58.3148 21.144 57.8774 21.224 57.3228 21.224ZM57.6748 19.592C58.2401 19.592 58.6988 19.4373 59.0508 19.128C59.4134 18.808 59.5948 18.3867 59.5948 17.864V17.704H57.5628C57.1894 17.704 56.8961 17.784 56.6828 17.944C56.4694 18.104 56.3628 18.328 56.3628 18.616C56.3628 18.904 56.4748 19.1387 56.6988 19.32C56.9228 19.5013 57.2481 19.592 57.6748 19.592ZM64.274 24.2V22.44H68.594C68.8927 22.44 69.042 22.28 69.042 21.96V19.96H68.754C68.6687 20.1413 68.5353 20.3227 68.354 20.504C68.1727 20.6853 67.9273 20.8347 67.618 20.952C67.3087 21.0693 66.914 21.128 66.434 21.128C65.8153 21.128 65.2713 20.9893 64.802 20.712C64.3433 20.424 63.986 20.0293 63.73 19.528C63.474 19.0267 63.346 18.4507 63.346 17.8V13.064H65.362V17.64C65.362 18.2373 65.506 18.6853 65.794 18.984C66.0927 19.2827 66.514 19.432 67.058 19.432C67.6767 19.432 68.1567 19.2293 68.498 18.824C68.8393 18.408 69.01 17.832 69.01 17.096V13.064H71.026V22.408C71.026 22.952 70.866 23.384 70.546 23.704C70.226 24.0347 69.7993 24.2 69.266 24.2H64.274ZM75.2534 21.224C74.688 21.224 74.1814 21.128 73.7334 20.936C73.2854 20.7333 72.928 20.4453 72.6614 20.072C72.4054 19.688 72.2774 19.224 72.2774 18.68C72.2774 18.136 72.4054 17.6827 72.6614 17.32C72.928 16.9467 73.2907 16.6693 73.7494 16.488C74.2187 16.296 74.752 16.2 75.3494 16.2H77.5254V15.752C77.5254 15.3787 77.408 15.0747 77.1734 14.84C76.9387 14.5947 76.5654 14.472 76.0534 14.472C75.552 14.472 75.1787 14.5893 74.9334 14.824C74.688 15.048 74.528 15.3413 74.4534 15.704L72.5974 15.08C72.7254 14.6747 72.928 14.3067 73.2054 13.976C73.4934 13.6347 73.872 13.3627 74.3414 13.16C74.8214 12.9467 75.4027 12.84 76.0854 12.84C77.1307 12.84 77.9574 13.1013 78.5654 13.624C79.1734 14.1467 79.4774 14.904 79.4774 15.896V18.856C79.4774 19.176 79.6267 19.336 79.9254 19.336H80.5654V21H79.2214C78.8267 21 78.5014 20.904 78.2454 20.712C77.9894 20.52 77.8614 20.264 77.8614 19.944V19.928H77.5574C77.5147 20.056 77.4187 20.2267 77.2694 20.44C77.12 20.6427 76.8854 20.824 76.5654 20.984C76.2454 21.144 75.808 21.224 75.2534 21.224ZM75.6054 19.592C76.1707 19.592 76.6294 19.4373 76.9814 19.128C77.344 18.808 77.5254 18.3867 77.5254 17.864V17.704H75.4934C75.12 17.704 74.8267 17.784 74.6134 17.944C74.4 18.104 74.2934 18.328 74.2934 18.616C74.2934 18.904 74.4054 19.1387 74.6294 19.32C74.8534 19.5013 75.1787 19.592 75.6054 19.592ZM81.5594 24.2V13.064H83.5434V14.024H83.8314C84.0127 13.7147 84.2954 13.4427 84.6794 13.208C85.0634 12.9627 85.6127 12.84 86.3274 12.84C86.9674 12.84 87.5594 13 88.1034 13.32C88.6474 13.6293 89.0847 14.088 89.4154 14.696C89.746 15.304 89.9114 16.04 89.9114 16.904V17.16C89.9114 18.024 89.746 18.76 89.4154 19.368C89.0847 19.976 88.6474 20.44 88.1034 20.76C87.5594 21.0693 86.9674 21.224 86.3274 21.224C85.8474 21.224 85.442 21.1653 85.1114 21.048C84.7914 20.9413 84.53 20.8027 84.3274 20.632C84.1354 20.4507 83.9807 20.2693 83.8634 20.088H83.5754V24.2H81.5594ZM85.7194 19.464C86.3487 19.464 86.866 19.2667 87.2714 18.872C87.6874 18.4667 87.8954 17.88 87.8954 17.112V16.952C87.8954 16.184 87.6874 15.6027 87.2714 15.208C86.8554 14.8027 86.338 14.6 85.7194 14.6C85.1007 14.6 84.5834 14.8027 84.1674 15.208C83.7514 15.6027 83.5434 16.184 83.5434 16.952V17.112C83.5434 17.88 83.7514 18.4667 84.1674 18.872C84.5834 19.2667 85.1007 19.464 85.7194 19.464ZM94.3065 21.128C93.6878 21.128 93.1438 20.9893 92.6745 20.712C92.2158 20.424 91.8585 20.0293 91.6025 19.528C91.3465 19.0267 91.2185 18.4507 91.2185 17.8V13.064H93.2345V17.64C93.2345 18.2373 93.3785 18.6853 93.6665 18.984C93.9652 19.2827 94.3865 19.432 94.9305 19.432C95.5492 19.432 96.0292 19.2293 96.3705 18.824C96.7118 18.408 96.8825 17.832 96.8825 17.096V13.064H98.8985V21H96.9145V19.96H96.6265C96.4985 20.2267 96.2585 20.488 95.9065 20.744C95.5545 21 95.0212 21.128 94.3065 21.128ZM100.662 21V13.064H102.646V13.96H102.934C103.051 13.64 103.243 13.4053 103.51 13.256C103.787 13.1067 104.107 13.032 104.47 13.032H105.43V14.824H104.438C103.926 14.824 103.505 14.9627 103.174 15.24C102.843 15.5067 102.678 15.9227 102.678 16.488V21H100.662ZM108.802 21.224C108.237 21.224 107.73 21.128 107.282 20.936C106.834 20.7333 106.477 20.4453 106.21 20.072C105.954 19.688 105.826 19.224 105.826 18.68C105.826 18.136 105.954 17.6827 106.21 17.32C106.477 16.9467 106.839 16.6693 107.298 16.488C107.767 16.296 108.301 16.2 108.898 16.2H111.074V15.752C111.074 15.3787 110.957 15.0747 110.722 14.84C110.487 14.5947 110.114 14.472 109.602 14.472C109.101 14.472 108.727 14.5893 108.482 14.824C108.237 15.048 108.077 15.3413 108.002 15.704L106.146 15.08C106.274 14.6747 106.477 14.3067 106.754 13.976C107.042 13.6347 107.421 13.3627 107.89 13.16C108.37 12.9467 108.951 12.84 109.634 12.84C110.679 12.84 111.506 13.1013 112.114 13.624C112.722 14.1467 113.026 14.904 113.026 15.896V18.856C113.026 19.176 113.175 19.336 113.474 19.336H114.114V21H112.77C112.375 21 112.05 20.904 111.794 20.712C111.538 20.52 111.41 20.264 111.41 19.944V19.928H111.106C111.063 20.056 110.967 20.2267 110.818 20.44C110.669 20.6427 110.434 20.824 110.114 20.984C109.794 21.144 109.357 21.224 108.802 21.224ZM109.154 19.592C109.719 19.592 110.178 19.4373 110.53 19.128C110.893 18.808 111.074 18.3867 111.074 17.864V17.704H109.042C108.669 17.704 108.375 17.784 108.162 17.944C107.949 18.104 107.842 18.328 107.842 18.616C107.842 18.904 107.954 19.1387 108.178 19.32C108.402 19.5013 108.727 19.592 109.154 19.592ZM118.116 21V11.304H117.828L116.324 14.856H114.18L116.468 9.8H120.164V21H118.116ZM125.543 21.224C124.711 21.224 123.985 21.0853 123.367 20.808C122.759 20.5307 122.284 20.1307 121.943 19.608C121.612 19.0853 121.447 18.4613 121.447 17.736H123.527C123.527 18.184 123.681 18.5733 123.991 18.904C124.311 19.2347 124.828 19.4 125.543 19.4C126.268 19.4 126.823 19.2133 127.207 18.84C127.591 18.456 127.783 17.9387 127.783 17.288V16.136H127.495C127.313 16.3493 127.036 16.552 126.663 16.744C126.3 16.936 125.756 17.032 125.031 17.032C124.391 17.032 123.793 16.8933 123.239 16.616C122.684 16.3387 122.236 15.9387 121.895 15.416C121.553 14.8827 121.383 14.2427 121.383 13.496V13.304C121.383 12.5573 121.559 11.9067 121.911 11.352C122.263 10.7973 122.759 10.3653 123.399 10.056C124.039 9.736 124.785 9.576 125.639 9.576C126.492 9.576 127.233 9.736 127.863 10.056C128.492 10.376 128.977 10.8187 129.319 11.384C129.66 11.9493 129.831 12.6 129.831 13.336V17.16C129.831 18.0667 129.644 18.824 129.271 19.432C128.908 20.0293 128.401 20.4773 127.751 20.776C127.111 21.0747 126.375 21.224 125.543 21.224ZM125.607 15.4C126.055 15.4 126.439 15.32 126.759 15.16C127.089 15 127.34 14.776 127.511 14.488C127.692 14.2 127.783 13.8587 127.783 13.464V13.336C127.783 12.7387 127.585 12.2693 127.191 11.928C126.807 11.576 126.279 11.4 125.607 11.4C124.935 11.4 124.401 11.576 124.007 11.928C123.623 12.2693 123.431 12.7387 123.431 13.336V13.464C123.431 13.8587 123.516 14.2 123.687 14.488C123.868 14.776 124.124 15 124.455 15.16C124.785 15.32 125.169 15.4 125.607 15.4Z" fill="white"/>
</svg>
