<svg width="44" height="44" viewBox="0 0 44 44" fill="none" xmlns="http://www.w3.org/2000/svg">
<rect opacity="0.8" x="0.5" y="0.5" width="43" height="43" rx="21.5" fill="white" stroke="#C3D4E9"/>
<circle cx="36.5" cy="7.5" r="5.5" fill="#FF4423"/>
<path d="M22.02 12.91C18.71 12.91 16.02 15.6 16.02 18.91V21.8C16.02 22.41 15.76 23.34 15.45 23.86L14.3 25.77C13.59 26.95 14.08 28.26 15.38 28.7C19.69 30.14 24.34 30.14 28.65 28.7C29.86 28.3 30.39 26.87 29.73 25.77L28.58 23.86C28.28 23.34 28.02 22.41 28.02 21.8V18.91C28.02 15.61 25.32 12.91 22.02 12.91Z" stroke="#292D32" stroke-width="1.5" stroke-miterlimit="10" stroke-linecap="round"/>
<path d="M23.87 13.2C23.56 13.11 23.24 13.04 22.91 13C21.95 12.88 21.03 12.95 20.17 13.2C20.46 12.46 21.18 11.94 22.02 11.94C22.86 11.94 23.58 12.46 23.87 13.2Z" stroke="#292D32" stroke-width="1.5" stroke-miterlimit="10" stroke-linecap="round" stroke-linejoin="round"/>
<path d="M25.02 29.06C25.02 30.71 23.67 32.06 22.02 32.06C21.2 32.06 20.44 31.72 19.9 31.18C19.36 30.64 19.02 29.88 19.02 29.06" stroke="#292D32" stroke-width="1.5" stroke-miterlimit="10"/>
</svg>
