<svg width="56" height="56" viewBox="0 0 56 56" fill="none" xmlns="http://www.w3.org/2000/svg">
<g clip-path="url(#clip0_8_382)">
<path d="M28 56C43.464 56 56 43.464 56 28C56 12.536 43.464 0 28 0C12.536 0 0 12.536 0 28C0 43.464 12.536 56 28 56Z" fill="#563F13"/>
<path fill-rule="evenodd" clip-rule="evenodd" d="M17.5625 26.2417V28.1094C17.5625 29.1885 18.4375 30.0625 19.5156 30.0625H37.4844C38.5625 30.0625 39.4375 29.1875 39.4375 28.1094V26.2417C39.4375 25.4959 39.1707 24.7747 38.6854 24.2083L35.2635 20.2167C34.9702 19.8743 34.6062 19.5995 34.1966 19.411C33.787 19.2226 33.3415 19.125 32.8906 19.125H24.1094C23.6585 19.125 23.213 19.2226 22.8034 19.411C22.3938 19.5995 22.0298 19.8743 21.7365 20.2167L18.3146 24.2083C17.8293 24.7747 17.5625 25.4959 17.5625 26.2417ZM24.1094 20.6875C23.8839 20.6875 23.6612 20.7363 23.4564 20.8305C23.2516 20.9247 23.0696 21.0621 22.9229 21.2333L20.0427 24.5938H23.3396C23.854 24.5938 24.3605 24.7208 24.8141 24.9636C25.2676 25.2064 25.6542 25.5574 25.9396 25.9854L26.1104 26.2417C26.2531 26.4557 26.4464 26.6312 26.6732 26.7526C26.9 26.874 27.1532 26.9375 27.4104 26.9375H29.5896C29.8468 26.9375 30.1 26.874 30.3268 26.7526C30.5536 26.6312 30.7469 26.4557 30.8896 26.2417L31.0604 25.9854C31.3458 25.5574 31.7324 25.2064 32.1859 24.9636C32.6395 24.7208 33.146 24.5938 33.6604 24.5938H36.9573L34.0771 21.2333C33.9304 21.0621 33.7484 20.9247 33.5436 20.8305C33.3388 20.7363 33.1161 20.6875 32.8906 20.6875H24.1094Z" fill="#F4A100"/>
<path d="M18.9302 31.625C18.175 31.625 17.5625 32.2375 17.5625 32.9927V34.75C17.5625 35.5788 17.8917 36.3737 18.4778 36.9597C19.0638 37.5458 19.8587 37.875 20.6875 37.875H36.3125C37.1413 37.875 37.9362 37.5458 38.5222 36.9597C39.1083 36.3737 39.4375 35.5788 39.4375 34.75V32.9917C39.4375 32.2375 38.825 31.625 38.0698 31.625H33.6604C33.146 31.625 32.6395 31.7521 32.1859 31.9948C31.7324 32.2376 31.3458 32.5886 31.0604 33.0167L30.8896 33.2729C30.7469 33.4869 30.5536 33.6624 30.3268 33.7838C30.1 33.9052 29.8468 33.9687 29.5896 33.9688H27.4104C27.1532 33.9687 26.9 33.9052 26.6732 33.7838C26.4464 33.6624 26.2531 33.4869 26.1104 33.2729L25.9396 33.0167C25.6542 32.5886 25.2676 32.2376 24.8141 31.9948C24.3605 31.7521 23.854 31.625 23.3396 31.625H18.9302Z" fill="#F4A100"/>
</g>
<defs>
<clipPath id="clip0_8_382">
<rect width="56" height="56" fill="white"/>
</clipPath>
</defs>
</svg>
