<svg width="56" height="56" viewBox="0 0 56 56" fill="none" xmlns="http://www.w3.org/2000/svg">
<g clip-path="url(#clip0_8_388)">
<path d="M28 56C43.464 56 56 43.464 56 28C56 12.536 43.464 0 28 0C12.536 0 0 12.536 0 28C0 43.464 12.536 56 28 56Z" fill="#563F13"/>
<path d="M25.952 23.6613C26.2547 23.4213 26.6147 23.2467 27 23.136V26.8627C26.6196 26.7585 26.2635 26.5804 25.952 26.3387C25.4267 25.9213 25.224 25.4307 25.224 25C25.224 24.5693 25.4267 24.0787 25.952 23.6613ZM29 32.8827V29.1173C29.4627 29.2307 29.8853 29.4213 30.228 29.6787C30.7973 30.1053 31 30.5933 31 31C31 31.4067 30.7973 31.8947 30.228 32.3213C29.8605 32.5887 29.4428 32.7805 29 32.8827Z" fill="#F4A100"/>
<path fill-rule="evenodd" clip-rule="evenodd" d="M28 15C20.82 15 15 20.82 15 28C15 35.18 20.82 41 28 41C35.18 41 41 35.18 41 28C41 20.82 35.18 15 28 15ZM29 20C29 19.7348 28.8946 19.4804 28.7071 19.2929C28.5196 19.1054 28.2652 19 28 19C27.7348 19 27.4804 19.1054 27.2929 19.2929C27.1054 19.4804 27 19.7348 27 20V21.088C26.1638 21.2287 25.3757 21.5751 24.7067 22.096C23.7573 22.8507 23.224 23.896 23.224 25C23.224 26.1053 23.7573 27.1493 24.708 27.904C25.3773 28.4373 26.1773 28.7667 27 28.912V32.8827C26.5571 32.78 26.1394 32.5891 25.772 32.3213L24.6 31.4413C24.4949 31.3625 24.3754 31.3052 24.2482 31.2726C24.121 31.24 23.9886 31.2328 23.8586 31.2514C23.596 31.2889 23.3591 31.4292 23.2 31.6413C23.0409 31.8535 22.9725 32.1202 23.0101 32.3828C23.0476 32.6453 23.1878 32.8822 23.4 33.0413L24.572 33.9213C25.2827 34.4547 26.1307 34.7813 27 34.9213V36C27 36.2652 27.1054 36.5196 27.2929 36.7071C27.4804 36.8946 27.7348 37 28 37C28.2652 37 28.5196 36.8946 28.7071 36.7071C28.8946 36.5196 29 36.2652 29 36V34.92C29.8781 34.788 30.7112 34.4454 31.428 33.9213C32.4213 33.176 33 32.1293 33 31C33 29.8707 32.4213 28.824 31.428 28.0787C30.7114 27.554 29.8782 27.2109 29 27.0787V23.1387C29.3867 23.248 29.7453 23.4227 30.048 23.6627L30.6013 24.1027C30.8091 24.2676 31.0739 24.3433 31.3374 24.3131C31.601 24.2828 31.8417 24.1491 32.0067 23.9413C32.1716 23.7336 32.2473 23.4688 32.2171 23.2053C32.1868 22.9417 32.0531 22.701 31.8453 22.536L31.292 22.096C30.6232 21.5758 29.8356 21.2299 29 21.0893V20Z" fill="#F4A100"/>
</g>
<defs>
<clipPath id="clip0_8_388">
<rect width="56" height="56" fill="white"/>
</clipPath>
</defs>
</svg>
