<svg width="22" height="23" viewBox="0 0 22 23" fill="none" xmlns="http://www.w3.org/2000/svg">
<path d="M2.75 8.85084V14.14C2.75 16.0833 2.75 16.0833 4.58333 17.3208L9.625 20.2358C10.3858 20.6758 11.6233 20.6758 12.375 20.2358L17.4167 17.3208C19.25 16.0833 19.25 16.0833 19.25 14.1492V8.85084C19.25 6.91667 19.25 6.91667 17.4167 5.67917L12.375 2.76417C11.6233 2.32417 10.3858 2.32417 9.625 2.76417L4.58333 5.67917C2.75 6.91667 2.75 6.91667 2.75 8.85084Z" stroke="#596780" stroke-width="2" stroke-linecap="round" stroke-linejoin="round"/>
<path d="M11 14.25C12.5188 14.25 13.75 13.0188 13.75 11.5C13.75 9.98122 12.5188 8.75 11 8.75C9.48122 8.75 8.25 9.98122 8.25 11.5C8.25 13.0188 9.48122 14.25 11 14.25Z" stroke="#596780" stroke-width="2" stroke-linecap="round" stroke-linejoin="round"/>
</svg>
