<svg width="56" height="56" viewBox="0 0 56 56" fill="none" xmlns="http://www.w3.org/2000/svg">
<g clip-path="url(#clip0_8_398)">
<path d="M28 56C43.464 56 56 43.464 56 28C56 12.536 43.464 0 28 0C12.536 0 0 12.536 0 28C0 43.464 12.536 56 28 56Z" fill="#563F13"/>
<path d="M20.4406 18.3438C19.9229 18.3438 19.426 18.55 19.0604 18.9167L17.7063 20.2688C17.0065 20.9672 16.5976 21.905 16.5621 22.8931C16.5266 23.8812 16.867 24.8459 17.5148 25.5928C18.1626 26.3398 19.0696 26.8132 20.0527 26.9178C21.0359 27.0224 22.0221 26.7502 22.8125 26.1563C23.4656 26.6458 24.2771 26.9375 25.1563 26.9375C26.0354 26.9375 26.8479 26.6458 27.5 26.1563C28.1521 26.6458 28.9646 26.9375 29.8438 26.9375C30.7229 26.9375 31.5344 26.6458 32.1875 26.1563C32.9779 26.7502 33.9641 27.0224 34.9473 26.9178C35.9304 26.8132 36.8374 26.3398 37.4852 25.5928C38.133 24.8459 38.4734 23.8812 38.4379 22.8931C38.4024 21.905 37.9935 20.9672 37.2938 20.2688L35.9396 18.9156C35.5735 18.5496 35.0771 18.3439 34.5594 18.3438H20.4406Z" fill="#F4A100"/>
<path fill-rule="evenodd" clip-rule="evenodd" d="M18.125 37.0937V27.9739C19.6042 28.676 21.3333 28.675 22.8125 27.9739C23.5449 28.3213 24.3456 28.5011 25.1562 28.5C25.9937 28.5 26.7896 28.3104 27.5 27.9729C28.2323 28.3207 29.033 28.5007 29.8437 28.5C30.6812 28.5 31.476 28.3104 32.1875 27.9729C33.6667 28.675 35.3958 28.676 36.875 27.9739V37.0937H37.6562C37.8634 37.0937 38.0622 37.176 38.2087 37.3226C38.3552 37.4691 38.4375 37.6678 38.4375 37.875C38.4375 38.0822 38.3552 38.2809 38.2087 38.4274C38.0622 38.5739 37.8634 38.6562 37.6562 38.6562H17.3438C17.1365 38.6562 16.9378 38.5739 16.7913 38.4274C16.6448 38.2809 16.5625 38.0822 16.5625 37.875C16.5625 37.6678 16.6448 37.4691 16.7913 37.3226C16.9378 37.176 17.1365 37.0937 17.3438 37.0937H18.125ZM21.25 30.8437C21.25 30.6365 21.3323 30.4378 21.4788 30.2913C21.6253 30.1448 21.824 30.0625 22.0312 30.0625H25.1562C25.3635 30.0625 25.5622 30.1448 25.7087 30.2913C25.8552 30.4378 25.9375 30.6365 25.9375 30.8437V33.9687C25.9375 34.1759 25.8552 34.3746 25.7087 34.5212C25.5622 34.6677 25.3635 34.75 25.1562 34.75H22.0312C21.824 34.75 21.6253 34.6677 21.4788 34.5212C21.3323 34.3746 21.25 34.1759 21.25 33.9687V30.8437ZM29.8437 30.0625C29.6365 30.0625 29.4378 30.1448 29.2913 30.2913C29.1448 30.4378 29.0625 30.6365 29.0625 30.8437V36.3125C29.0625 36.7437 29.4125 37.0937 29.8437 37.0937H32.9688C33.1759 37.0937 33.3747 37.0114 33.5212 36.8649C33.6677 36.7184 33.75 36.5197 33.75 36.3125V30.8437C33.75 30.6365 33.6677 30.4378 33.5212 30.2913C33.3747 30.1448 33.1759 30.0625 32.9688 30.0625H29.8437Z" fill="#F4A100"/>
</g>
<defs>
<clipPath id="clip0_8_398">
<rect width="56" height="56" fill="white"/>
</clipPath>
</defs>
</svg>
