<svg width="12" height="16" viewBox="0 0 12 16" fill="none" xmlns="http://www.w3.org/2000/svg">
<mask id="mask0_120_26" style="mask-type:luminance" maskUnits="userSpaceOnUse" x="0" y="0" width="12" height="16">
<path d="M11.486 0H0V16H11.486V0Z" fill="white"/>
</mask>
<g mask="url(#mask0_120_26)">
<path d="M7.73639 12.2495C7.65169 12.3342 7.55112 12.4015 7.44046 12.4473C7.3298 12.4932 7.21118 12.5168 7.09138 12.5168C6.97164 12.5168 6.85302 12.4932 6.7423 12.4473C6.63164 12.4015 6.53113 12.3342 6.44643 12.2495L1.19959 7.00355C0.442848 6.23136 0.0214153 5.19173 0.0268774 4.11055C0.0323395 3.0294 0.464248 1.99408 1.22875 1.22957C1.99325 0.465072 3.02859 0.0331634 4.10975 0.0277013C5.1909 0.022245 6.23054 0.443672 7.00272 1.20041L10.3187 4.51648C10.4894 4.68798 10.5849 4.92022 10.5842 5.16212C10.5837 5.40408 10.4869 5.63584 10.3154 5.80642C10.144 5.97707 9.91169 6.07257 9.66978 6.07192C9.42788 6.07133 9.19613 5.97459 9.02548 5.80312L5.71358 2.48705C5.2857 2.05918 4.70539 1.81881 4.10031 1.81881C3.49523 1.81881 2.91492 2.05918 2.48704 2.48705C2.05919 2.91491 1.81881 3.49522 1.81881 4.10031C1.81881 4.7054 2.05919 5.28569 2.48704 5.71358L7.73392 10.9604C7.90509 11.1311 8.00148 11.3627 8.00195 11.6045C8.00242 11.8462 7.90692 12.0782 7.73639 12.2495Z" fill="#FFD600"/>
<path d="M10.2864 14.7996C9.51623 15.5679 8.47277 15.9993 7.38489 15.9993C6.297 15.9993 5.25354 15.5679 4.4833 14.7996L1.17141 11.4835C1.0795 11.4006 1.00543 11.2999 0.953718 11.1874C0.902005 11.075 0.873727 10.9531 0.870606 10.8294C0.86748 10.7056 0.889582 10.5826 0.935556 10.4677C0.981536 10.3527 1.05043 10.2484 1.13803 10.161C1.22564 10.0735 1.33013 10.0048 1.44514 9.95905C1.56014 9.91333 1.68326 9.89145 1.80699 9.89481C1.93072 9.89818 2.05248 9.92667 2.16483 9.97863C2.27718 10.0305 2.37779 10.1048 2.46053 10.1969L5.77244 13.513C6.20098 13.9358 6.77933 14.1719 7.38129 14.1699C7.9833 14.1679 8.56007 13.9279 8.98571 13.5022C9.41142 13.0765 9.65143 12.4998 9.65344 11.8977C9.65544 11.2958 9.41932 10.7174 8.99651 10.2889L3.74963 5.03954C3.57857 4.86854 3.48248 4.63651 3.48248 4.3946C3.48248 4.15269 3.57857 3.92068 3.74963 3.74962C3.92069 3.57857 4.15268 3.48247 4.39464 3.48247C4.63654 3.48247 4.86854 3.57857 5.0396 3.74962L10.2864 8.99645C11.0549 9.76658 11.4865 10.8101 11.4865 11.898C11.4865 12.986 11.0549 14.0294 10.2864 14.7996Z" fill="#FFD600"/>
</g>
</svg>
