<svg width="56" height="56" viewBox="0 0 56 56" fill="none" xmlns="http://www.w3.org/2000/svg">
<circle cx="28" cy="28" r="28" fill="#EFEBFF"/>
<path fill-rule="evenodd" clip-rule="evenodd" d="M21.8594 17.5625C20.7802 17.5625 19.9062 18.4375 19.9062 19.5156V37.4844C19.9062 38.5625 20.7812 39.4375 21.8594 39.4375H35.1406C36.2188 39.4375 37.0938 38.5625 37.0938 37.4844V29.2812C37.0938 28.2452 36.6822 27.2517 35.9496 26.5191C35.2171 25.7865 34.2235 25.375 33.1875 25.375H31.2344C30.7164 25.375 30.2196 25.1692 29.8533 24.8029C29.487 24.4367 29.2812 23.9399 29.2812 23.4219V21.4687C29.2812 20.4327 28.8697 19.4392 28.1371 18.7066C27.4046 17.9741 26.411 17.5625 25.375 17.5625H21.8594ZM23.8125 31.625C23.8125 31.4178 23.8948 31.2191 24.0413 31.0726C24.1878 30.9261 24.3865 30.8437 24.5938 30.8437H32.4062C32.6135 30.8437 32.8122 30.9261 32.9587 31.0726C33.1052 31.2191 33.1875 31.4178 33.1875 31.625C33.1875 31.8322 33.1052 32.0309 32.9587 32.1774C32.8122 32.3239 32.6135 32.4062 32.4062 32.4062H24.5938C24.3865 32.4062 24.1878 32.3239 24.0413 32.1774C23.8948 32.0309 23.8125 31.8322 23.8125 31.625ZM24.5938 33.9688C24.3865 33.9688 24.1878 34.0511 24.0413 34.1976C23.8948 34.3441 23.8125 34.5428 23.8125 34.75C23.8125 34.9572 23.8948 35.1559 24.0413 35.3024C24.1878 35.4489 24.3865 35.5312 24.5938 35.5312H28.5C28.7072 35.5312 28.9059 35.4489 29.0524 35.3024C29.1989 35.1559 29.2812 34.9572 29.2812 34.75C29.2812 34.5428 29.1989 34.3441 29.0524 34.1976C28.9059 34.0511 28.7072 33.9688 28.5 33.9688H24.5938Z" fill="#725CFF"/>
<path d="M29.5115 17.8917C30.3724 18.8843 30.8456 20.1547 30.8438 21.4687V23.4219C30.8438 23.6375 31.0188 23.8125 31.2344 23.8125H33.1875C34.5015 23.8107 35.7719 24.2838 36.7646 25.1448C36.3063 23.4018 35.3933 21.8118 34.1189 20.5374C32.8445 19.263 31.2545 18.35 29.5115 17.8917Z" fill="#725CFF"/>
</svg>
