<svg width="21" height="29" viewBox="0 0 21 29" fill="none" xmlns="http://www.w3.org/2000/svg">
<g clip-path="url(#clip0_1_238)">
<path d="M13.9281 21.7043C13.7845 21.8479 13.614 21.9619 13.4264 22.0396C13.2388 22.1173 13.0377 22.1574 12.8346 22.1574C12.6316 22.1574 12.4305 22.1173 12.2428 22.0396C12.0552 21.9619 11.8848 21.8479 11.7412 21.7043L2.84617 12.8107C1.56326 11.5016 0.848803 9.73907 0.85806 7.90617C0.867317 6.07327 1.59954 4.31808 2.89561 3.02201C4.19168 1.72594 5.94687 0.993721 7.77977 0.984464C9.61266 0.975207 11.3752 1.68966 12.6843 2.97257L18.306 8.59434C18.5953 8.88508 18.7572 9.27882 18.7561 9.68893C18.7551 10.0991 18.5911 10.492 18.3004 10.7812C18.0097 11.0705 17.6159 11.2324 17.2058 11.2313C16.7957 11.2303 16.4028 11.0663 16.1135 10.7756L10.4988 5.15382C9.77343 4.42845 8.78963 4.02095 7.76381 4.02095C6.73799 4.02095 5.75418 4.42845 5.02882 5.15382C4.30346 5.87918 3.89595 6.86299 3.89595 7.8888C3.89595 8.91462 4.30346 9.89843 5.02882 10.6238L13.9239 19.5188C14.2141 19.8082 14.3775 20.2009 14.3783 20.6107C14.3791 21.0205 14.2172 21.4138 13.9281 21.7043Z" fill="#7C5CFC"/>
<path d="M18.2512 26.0274C16.9455 27.3299 15.1765 28.0613 13.3322 28.0613C11.4879 28.0613 9.71889 27.3299 8.41314 26.0274L2.79841 20.4056C2.6426 20.2651 2.51703 20.0943 2.42936 19.9036C2.34169 19.713 2.29375 19.5065 2.28846 19.2967C2.28316 19.0869 2.32063 18.8783 2.39857 18.6835C2.47652 18.4886 2.59331 18.3117 2.74183 18.1635C2.89035 18.0153 3.06749 17.8988 3.26247 17.8212C3.45744 17.7437 3.66617 17.7066 3.87593 17.7123C4.08569 17.718 4.2921 17.7663 4.48257 17.8544C4.67305 17.9424 4.84361 18.0683 4.98387 18.2244L10.5986 23.8462C11.3251 24.563 12.3056 24.9633 13.3261 24.9599C14.3467 24.9565 15.3245 24.5496 16.0461 23.8279C16.7678 23.1063 17.1747 22.1285 17.1781 21.1079C17.1815 20.0874 16.7812 19.1069 16.0644 18.3804L7.16933 9.48115C6.87933 9.19115 6.71641 8.79783 6.71641 8.38772C6.71641 7.9776 6.87933 7.58428 7.16933 7.29428C7.45932 7.00429 7.85264 6.84137 8.26276 6.84137C8.67287 6.84137 9.06619 7.00429 9.35619 7.29428L18.2512 16.1893C19.554 17.4949 20.2857 19.264 20.2857 21.1084C20.2857 22.9528 19.554 24.7218 18.2512 26.0274Z" fill="#7C5CFC"/>
</g>
<defs>
<clipPath id="clip0_1_238">
<rect width="19.4724" height="27.125" fill="white" transform="translate(0.8125 0.9375)"/>
</clipPath>
</defs>
</svg>
